<mxfile host="app.diagrams.net" modified="2022-02-21T03:40:54.085Z" agent="5.0 (Macintosh; Intel Mac OS X 10_15_7) AppleWebKit/605.1.15 (KHTML, like Gecko) Version/15.1 Safari/605.1.15" etag="-v138xxAKzqzv_JeGST9" version="16.0.3" type="github">
  <diagram id="rdF5DC8ADCqOEM-56Y4E" name="第 1 页">
    <mxGraphModel dx="2719" dy="1290" grid="1" gridSize="10" guides="1" tooltips="1" connect="1" arrows="1" fold="1" page="1" pageScale="1" pageWidth="827" pageHeight="1169" math="0" shadow="0">
      <root>
        <mxCell id="0" />
        <mxCell id="1" parent="0" />
        <mxCell id="FymUpO2ddn1shdIVuSi2-6" style="edgeStyle=orthogonalEdgeStyle;rounded=0;orthogonalLoop=1;jettySize=auto;html=1;exitX=0;exitY=0.5;exitDx=0;exitDy=0;entryX=0.5;entryY=0;entryDx=0;entryDy=0;fontSize=19;curved=1;" edge="1" parent="1" source="FymUpO2ddn1shdIVuSi2-1" target="FymUpO2ddn1shdIVuSi2-3">
          <mxGeometry relative="1" as="geometry">
            <Array as="points">
              <mxPoint x="590" y="590" />
            </Array>
          </mxGeometry>
        </mxCell>
        <mxCell id="FymUpO2ddn1shdIVuSi2-1" value="&lt;font style=&quot;font-size: 19px&quot;&gt;状态1&lt;/font&gt;" style="ellipse;whiteSpace=wrap;html=1;aspect=fixed;" vertex="1" parent="1">
          <mxGeometry x="650" y="550" width="80" height="80" as="geometry" />
        </mxCell>
        <mxCell id="FymUpO2ddn1shdIVuSi2-7" style="edgeStyle=orthogonalEdgeStyle;curved=1;rounded=0;orthogonalLoop=1;jettySize=auto;html=1;exitX=1;exitY=0.5;exitDx=0;exitDy=0;entryX=0;entryY=0.5;entryDx=0;entryDy=0;fontSize=19;" edge="1" parent="1" source="FymUpO2ddn1shdIVuSi2-3" target="FymUpO2ddn1shdIVuSi2-4">
          <mxGeometry relative="1" as="geometry" />
        </mxCell>
        <mxCell id="FymUpO2ddn1shdIVuSi2-9" style="edgeStyle=orthogonalEdgeStyle;curved=1;rounded=0;orthogonalLoop=1;jettySize=auto;html=1;exitX=0.5;exitY=1;exitDx=0;exitDy=0;entryX=0;entryY=0.5;entryDx=0;entryDy=0;fontSize=19;" edge="1" parent="1" source="FymUpO2ddn1shdIVuSi2-3" target="FymUpO2ddn1shdIVuSi2-5">
          <mxGeometry relative="1" as="geometry" />
        </mxCell>
        <mxCell id="FymUpO2ddn1shdIVuSi2-3" value="&lt;font style=&quot;font-size: 19px&quot;&gt;状态2&lt;/font&gt;" style="ellipse;whiteSpace=wrap;html=1;aspect=fixed;" vertex="1" parent="1">
          <mxGeometry x="550" y="710" width="80" height="80" as="geometry" />
        </mxCell>
        <mxCell id="FymUpO2ddn1shdIVuSi2-8" style="edgeStyle=orthogonalEdgeStyle;curved=1;rounded=0;orthogonalLoop=1;jettySize=auto;html=1;exitX=0.5;exitY=1;exitDx=0;exitDy=0;entryX=0.5;entryY=0;entryDx=0;entryDy=0;fontSize=19;" edge="1" parent="1" source="FymUpO2ddn1shdIVuSi2-4" target="FymUpO2ddn1shdIVuSi2-5">
          <mxGeometry relative="1" as="geometry" />
        </mxCell>
        <mxCell id="FymUpO2ddn1shdIVuSi2-24" style="edgeStyle=orthogonalEdgeStyle;curved=1;rounded=0;orthogonalLoop=1;jettySize=auto;html=1;exitX=1;exitY=0.5;exitDx=0;exitDy=0;dashed=1;fontSize=19;" edge="1" parent="1" source="FymUpO2ddn1shdIVuSi2-4" target="FymUpO2ddn1shdIVuSi2-26">
          <mxGeometry relative="1" as="geometry">
            <mxPoint x="900" y="620" as="targetPoint" />
            <Array as="points">
              <mxPoint x="870" y="750" />
              <mxPoint x="870" y="620" />
            </Array>
          </mxGeometry>
        </mxCell>
        <mxCell id="FymUpO2ddn1shdIVuSi2-4" value="&lt;font style=&quot;font-size: 19px&quot;&gt;状态3&lt;/font&gt;" style="ellipse;whiteSpace=wrap;html=1;aspect=fixed;" vertex="1" parent="1">
          <mxGeometry x="730" y="710" width="80" height="80" as="geometry" />
        </mxCell>
        <mxCell id="FymUpO2ddn1shdIVuSi2-33" style="edgeStyle=orthogonalEdgeStyle;curved=1;rounded=0;orthogonalLoop=1;jettySize=auto;html=1;exitX=1;exitY=0.5;exitDx=0;exitDy=0;entryX=0;entryY=0.5;entryDx=0;entryDy=0;fontSize=19;dashed=1;" edge="1" parent="1" source="FymUpO2ddn1shdIVuSi2-5" target="FymUpO2ddn1shdIVuSi2-25">
          <mxGeometry relative="1" as="geometry" />
        </mxCell>
        <mxCell id="FymUpO2ddn1shdIVuSi2-5" value="&lt;font style=&quot;font-size: 19px&quot;&gt;状态n&lt;/font&gt;" style="ellipse;whiteSpace=wrap;html=1;aspect=fixed;" vertex="1" parent="1">
          <mxGeometry x="730" y="850" width="80" height="80" as="geometry" />
        </mxCell>
        <mxCell id="FymUpO2ddn1shdIVuSi2-17" style="edgeStyle=orthogonalEdgeStyle;curved=1;rounded=0;orthogonalLoop=1;jettySize=auto;html=1;exitX=0.5;exitY=0;exitDx=0;exitDy=0;entryX=0;entryY=0.5;entryDx=0;entryDy=0;fontSize=19;" edge="1" parent="1" source="FymUpO2ddn1shdIVuSi2-10" target="FymUpO2ddn1shdIVuSi2-16">
          <mxGeometry relative="1" as="geometry" />
        </mxCell>
        <mxCell id="FymUpO2ddn1shdIVuSi2-10" value="&lt;font style=&quot;font-size: 19px&quot;&gt;动作1&lt;/font&gt;" style="ellipse;whiteSpace=wrap;html=1;aspect=fixed;" vertex="1" parent="1">
          <mxGeometry x="940" y="580" width="80" height="80" as="geometry" />
        </mxCell>
        <mxCell id="FymUpO2ddn1shdIVuSi2-14" style="edgeStyle=orthogonalEdgeStyle;curved=1;rounded=0;orthogonalLoop=1;jettySize=auto;html=1;exitX=0.5;exitY=1;exitDx=0;exitDy=0;entryX=1;entryY=0.5;entryDx=0;entryDy=0;fontSize=19;" edge="1" parent="1" source="FymUpO2ddn1shdIVuSi2-11" target="FymUpO2ddn1shdIVuSi2-12">
          <mxGeometry relative="1" as="geometry" />
        </mxCell>
        <mxCell id="FymUpO2ddn1shdIVuSi2-11" value="&lt;font style=&quot;font-size: 19px&quot;&gt;动作3&lt;/font&gt;" style="ellipse;whiteSpace=wrap;html=1;aspect=fixed;" vertex="1" parent="1">
          <mxGeometry x="1120" y="580" width="80" height="80" as="geometry" />
        </mxCell>
        <mxCell id="FymUpO2ddn1shdIVuSi2-15" style="edgeStyle=orthogonalEdgeStyle;curved=1;rounded=0;orthogonalLoop=1;jettySize=auto;html=1;exitX=0;exitY=0.5;exitDx=0;exitDy=0;fontSize=19;" edge="1" parent="1" source="FymUpO2ddn1shdIVuSi2-12" target="FymUpO2ddn1shdIVuSi2-10">
          <mxGeometry relative="1" as="geometry" />
        </mxCell>
        <mxCell id="FymUpO2ddn1shdIVuSi2-12" value="&lt;font style=&quot;font-size: 19px&quot;&gt;动作n&lt;/font&gt;" style="ellipse;whiteSpace=wrap;html=1;aspect=fixed;" vertex="1" parent="1">
          <mxGeometry x="1030" y="670" width="80" height="80" as="geometry" />
        </mxCell>
        <mxCell id="FymUpO2ddn1shdIVuSi2-18" style="edgeStyle=orthogonalEdgeStyle;curved=1;rounded=0;orthogonalLoop=1;jettySize=auto;html=1;exitX=1;exitY=0.5;exitDx=0;exitDy=0;fontSize=19;" edge="1" parent="1" source="FymUpO2ddn1shdIVuSi2-16" target="FymUpO2ddn1shdIVuSi2-11">
          <mxGeometry relative="1" as="geometry" />
        </mxCell>
        <mxCell id="FymUpO2ddn1shdIVuSi2-16" value="&lt;font style=&quot;font-size: 19px&quot;&gt;动作2&lt;/font&gt;" style="ellipse;whiteSpace=wrap;html=1;aspect=fixed;" vertex="1" parent="1">
          <mxGeometry x="1030" y="490" width="80" height="80" as="geometry" />
        </mxCell>
        <mxCell id="FymUpO2ddn1shdIVuSi2-20" value="系统动作状态机" style="text;html=1;strokeColor=none;fillColor=none;align=center;verticalAlign=middle;whiteSpace=wrap;rounded=0;dashed=1;fontSize=19;" vertex="1" parent="1">
          <mxGeometry x="920" y="430" width="140" height="30" as="geometry" />
        </mxCell>
        <mxCell id="FymUpO2ddn1shdIVuSi2-21" value="对话场景状态机" style="text;html=1;strokeColor=none;fillColor=none;align=center;verticalAlign=middle;whiteSpace=wrap;rounded=0;dashed=1;fontSize=19;" vertex="1" parent="1">
          <mxGeometry x="540" y="490" width="140" height="30" as="geometry" />
        </mxCell>
        <mxCell id="FymUpO2ddn1shdIVuSi2-29" style="edgeStyle=orthogonalEdgeStyle;curved=1;rounded=0;orthogonalLoop=1;jettySize=auto;html=1;exitX=1;exitY=0.5;exitDx=0;exitDy=0;fontSize=19;" edge="1" parent="1" source="FymUpO2ddn1shdIVuSi2-25" target="FymUpO2ddn1shdIVuSi2-27">
          <mxGeometry relative="1" as="geometry" />
        </mxCell>
        <mxCell id="FymUpO2ddn1shdIVuSi2-25" value="&lt;span style=&quot;font-size: 19px&quot;&gt;状态1&lt;/span&gt;" style="ellipse;whiteSpace=wrap;html=1;aspect=fixed;" vertex="1" parent="1">
          <mxGeometry x="960" y="850" width="80" height="80" as="geometry" />
        </mxCell>
        <mxCell id="FymUpO2ddn1shdIVuSi2-26" value="" style="rounded=0;whiteSpace=wrap;html=1;fontSize=19;fillColor=none;dashed=1;" vertex="1" parent="1">
          <mxGeometry x="920" y="470" width="300" height="300" as="geometry" />
        </mxCell>
        <mxCell id="FymUpO2ddn1shdIVuSi2-30" style="edgeStyle=orthogonalEdgeStyle;curved=1;rounded=0;orthogonalLoop=1;jettySize=auto;html=1;exitX=0.5;exitY=1;exitDx=0;exitDy=0;entryX=1;entryY=0.5;entryDx=0;entryDy=0;fontSize=19;" edge="1" parent="1" source="FymUpO2ddn1shdIVuSi2-27" target="FymUpO2ddn1shdIVuSi2-28">
          <mxGeometry relative="1" as="geometry" />
        </mxCell>
        <mxCell id="FymUpO2ddn1shdIVuSi2-27" value="&lt;span style=&quot;font-size: 19px&quot;&gt;状态2&lt;/span&gt;" style="ellipse;whiteSpace=wrap;html=1;aspect=fixed;" vertex="1" parent="1">
          <mxGeometry x="1120" y="850" width="80" height="80" as="geometry" />
        </mxCell>
        <mxCell id="FymUpO2ddn1shdIVuSi2-31" style="edgeStyle=orthogonalEdgeStyle;curved=1;rounded=0;orthogonalLoop=1;jettySize=auto;html=1;exitX=0;exitY=0.5;exitDx=0;exitDy=0;entryX=0.5;entryY=1;entryDx=0;entryDy=0;fontSize=19;" edge="1" parent="1" source="FymUpO2ddn1shdIVuSi2-28" target="FymUpO2ddn1shdIVuSi2-25">
          <mxGeometry relative="1" as="geometry" />
        </mxCell>
        <mxCell id="FymUpO2ddn1shdIVuSi2-28" value="&lt;span style=&quot;font-size: 19px&quot;&gt;状态n&lt;/span&gt;" style="ellipse;whiteSpace=wrap;html=1;aspect=fixed;" vertex="1" parent="1">
          <mxGeometry x="1040" y="965" width="80" height="80" as="geometry" />
        </mxCell>
        <mxCell id="FymUpO2ddn1shdIVuSi2-32" value="" style="rounded=0;whiteSpace=wrap;html=1;fontSize=19;fillColor=none;dashed=1;" vertex="1" parent="1">
          <mxGeometry x="920" y="830" width="300" height="230" as="geometry" />
        </mxCell>
        <mxCell id="FymUpO2ddn1shdIVuSi2-34" value="" style="rounded=0;whiteSpace=wrap;html=1;fontSize=19;fillColor=none;" vertex="1" parent="1">
          <mxGeometry x="540" y="530" width="310" height="430" as="geometry" />
        </mxCell>
        <mxCell id="FymUpO2ddn1shdIVuSi2-35" value="子场景状态机" style="text;html=1;strokeColor=none;fillColor=none;align=center;verticalAlign=middle;whiteSpace=wrap;rounded=0;dashed=1;fontSize=19;" vertex="1" parent="1">
          <mxGeometry x="920" y="790" width="140" height="30" as="geometry" />
        </mxCell>
        <mxCell id="FymUpO2ddn1shdIVuSi2-36" value="意图识别" style="ellipse;shape=cloud;whiteSpace=wrap;html=1;fontSize=19;fillColor=none;" vertex="1" parent="1">
          <mxGeometry x="190" y="430" width="180" height="100" as="geometry" />
        </mxCell>
        <mxCell id="FymUpO2ddn1shdIVuSi2-39" value="槽填充" style="ellipse;shape=cloud;whiteSpace=wrap;html=1;fontSize=19;fillColor=none;" vertex="1" parent="1">
          <mxGeometry x="190" y="550" width="180" height="100" as="geometry" />
        </mxCell>
        <mxCell id="FymUpO2ddn1shdIVuSi2-40" value="命名实体识别" style="ellipse;shape=cloud;whiteSpace=wrap;html=1;fontSize=19;fillColor=none;" vertex="1" parent="1">
          <mxGeometry x="190" y="680" width="180" height="100" as="geometry" />
        </mxCell>
        <mxCell id="FymUpO2ddn1shdIVuSi2-41" value="情绪识别" style="ellipse;shape=cloud;whiteSpace=wrap;html=1;fontSize=19;fillColor=none;" vertex="1" parent="1">
          <mxGeometry x="190" y="810" width="180" height="100" as="geometry" />
        </mxCell>
        <mxCell id="FymUpO2ddn1shdIVuSi2-42" value="..." style="ellipse;shape=cloud;whiteSpace=wrap;html=1;fontSize=19;fillColor=none;" vertex="1" parent="1">
          <mxGeometry x="190" y="950" width="180" height="100" as="geometry" />
        </mxCell>
        <mxCell id="FymUpO2ddn1shdIVuSi2-45" value="" style="shape=flexArrow;endArrow=classic;startArrow=classic;html=1;rounded=0;fontSize=19;curved=1;" edge="1" parent="1">
          <mxGeometry width="100" height="100" relative="1" as="geometry">
            <mxPoint x="390" y="744.29" as="sourcePoint" />
            <mxPoint x="490" y="744.29" as="targetPoint" />
          </mxGeometry>
        </mxCell>
        <mxCell id="FymUpO2ddn1shdIVuSi2-46" value="AI模型辅助" style="text;html=1;strokeColor=none;fillColor=none;align=center;verticalAlign=middle;whiteSpace=wrap;rounded=0;dashed=1;fontSize=19;" vertex="1" parent="1">
          <mxGeometry x="210" y="320" width="140" height="30" as="geometry" />
        </mxCell>
        <mxCell id="FymUpO2ddn1shdIVuSi2-48" value="多轮对话管理" style="text;html=1;strokeColor=none;fillColor=none;align=center;verticalAlign=middle;whiteSpace=wrap;rounded=0;dashed=1;fontSize=19;" vertex="1" parent="1">
          <mxGeometry x="510" y="320" width="140" height="30" as="geometry" />
        </mxCell>
        <mxCell id="FymUpO2ddn1shdIVuSi2-51" value="" style="rounded=0;whiteSpace=wrap;html=1;fontSize=19;fillColor=none;" vertex="1" parent="1">
          <mxGeometry x="180" y="390" width="200" height="710" as="geometry" />
        </mxCell>
        <mxCell id="FymUpO2ddn1shdIVuSi2-52" value="&lt;font color=&quot;#ff3333&quot;&gt;规则为主&lt;br&gt;模型为辅&lt;/font&gt;" style="ellipse;shape=cloud;whiteSpace=wrap;html=1;fontSize=19;fillColor=none;" vertex="1" parent="1">
          <mxGeometry x="-100" y="610" width="200" height="120" as="geometry" />
        </mxCell>
        <mxCell id="FymUpO2ddn1shdIVuSi2-53" value="" style="rounded=0;whiteSpace=wrap;html=1;fontSize=19;fillColor=none;" vertex="1" parent="1">
          <mxGeometry x="510" y="390" width="750" height="710" as="geometry" />
        </mxCell>
        <mxCell id="FymUpO2ddn1shdIVuSi2-61" style="edgeStyle=orthogonalEdgeStyle;curved=1;rounded=0;orthogonalLoop=1;jettySize=auto;html=1;exitX=1;exitY=0.5;exitDx=0;exitDy=0;entryX=0;entryY=0.5;entryDx=0;entryDy=0;fontSize=19;fontColor=#000000;" edge="1" parent="1" source="FymUpO2ddn1shdIVuSi2-54" target="FymUpO2ddn1shdIVuSi2-56">
          <mxGeometry relative="1" as="geometry" />
        </mxCell>
        <mxCell id="FymUpO2ddn1shdIVuSi2-54" value="&lt;font color=&quot;#000000&quot;&gt;用户语句&lt;/font&gt;" style="shape=parallelogram;perimeter=parallelogramPerimeter;whiteSpace=wrap;html=1;fixedSize=1;fontSize=19;fontColor=#FF3333;fillColor=none;" vertex="1" parent="1">
          <mxGeometry x="-30" y="150" width="150" height="60" as="geometry" />
        </mxCell>
        <mxCell id="FymUpO2ddn1shdIVuSi2-62" style="edgeStyle=orthogonalEdgeStyle;curved=1;rounded=0;orthogonalLoop=1;jettySize=auto;html=1;exitX=1;exitY=0.5;exitDx=0;exitDy=0;entryX=0;entryY=0.5;entryDx=0;entryDy=0;fontSize=19;fontColor=#000000;" edge="1" parent="1" source="FymUpO2ddn1shdIVuSi2-56" target="FymUpO2ddn1shdIVuSi2-57">
          <mxGeometry relative="1" as="geometry" />
        </mxCell>
        <mxCell id="FymUpO2ddn1shdIVuSi2-56" value="自然语言理解" style="rounded=0;whiteSpace=wrap;html=1;fontSize=19;fontColor=#000000;fillColor=none;" vertex="1" parent="1">
          <mxGeometry x="210" y="150" width="150" height="60" as="geometry" />
        </mxCell>
        <mxCell id="FymUpO2ddn1shdIVuSi2-63" style="edgeStyle=orthogonalEdgeStyle;curved=1;rounded=0;orthogonalLoop=1;jettySize=auto;html=1;exitX=1;exitY=0.5;exitDx=0;exitDy=0;entryX=0;entryY=0.5;entryDx=0;entryDy=0;fontSize=19;fontColor=#000000;" edge="1" parent="1" source="FymUpO2ddn1shdIVuSi2-57" target="FymUpO2ddn1shdIVuSi2-58">
          <mxGeometry relative="1" as="geometry" />
        </mxCell>
        <mxCell id="FymUpO2ddn1shdIVuSi2-57" value="对话状态追踪" style="rounded=0;whiteSpace=wrap;html=1;fontSize=19;fontColor=#000000;fillColor=none;" vertex="1" parent="1">
          <mxGeometry x="580" y="150" width="150" height="60" as="geometry" />
        </mxCell>
        <mxCell id="FymUpO2ddn1shdIVuSi2-64" style="edgeStyle=orthogonalEdgeStyle;curved=1;rounded=0;orthogonalLoop=1;jettySize=auto;html=1;exitX=1;exitY=0.5;exitDx=0;exitDy=0;entryX=0;entryY=0.5;entryDx=0;entryDy=0;fontSize=19;fontColor=#000000;" edge="1" parent="1" source="FymUpO2ddn1shdIVuSi2-58" target="FymUpO2ddn1shdIVuSi2-59">
          <mxGeometry relative="1" as="geometry" />
        </mxCell>
        <mxCell id="FymUpO2ddn1shdIVuSi2-58" value="对话策略" style="rounded=0;whiteSpace=wrap;html=1;fontSize=19;fontColor=#000000;fillColor=none;" vertex="1" parent="1">
          <mxGeometry x="980" y="150" width="150" height="60" as="geometry" />
        </mxCell>
        <mxCell id="FymUpO2ddn1shdIVuSi2-65" style="edgeStyle=orthogonalEdgeStyle;curved=1;rounded=0;orthogonalLoop=1;jettySize=auto;html=1;exitX=1;exitY=0.5;exitDx=0;exitDy=0;entryX=0;entryY=0.5;entryDx=0;entryDy=0;fontSize=19;fontColor=#000000;" edge="1" parent="1" source="FymUpO2ddn1shdIVuSi2-59" target="FymUpO2ddn1shdIVuSi2-60">
          <mxGeometry relative="1" as="geometry" />
        </mxCell>
        <mxCell id="FymUpO2ddn1shdIVuSi2-59" value="自然语言生成" style="rounded=0;whiteSpace=wrap;html=1;fontSize=19;fontColor=#000000;fillColor=none;" vertex="1" parent="1">
          <mxGeometry x="1370" y="150" width="150" height="60" as="geometry" />
        </mxCell>
        <mxCell id="FymUpO2ddn1shdIVuSi2-60" value="&lt;font color=&quot;#000000&quot;&gt;&lt;span&gt;机器人回复&lt;/span&gt;&lt;/font&gt;" style="shape=parallelogram;perimeter=parallelogramPerimeter;whiteSpace=wrap;html=1;fixedSize=1;fontSize=19;fontColor=#FF3333;fillColor=none;" vertex="1" parent="1">
          <mxGeometry x="1650" y="150" width="150" height="60" as="geometry" />
        </mxCell>
        <mxCell id="FymUpO2ddn1shdIVuSi2-67" value="" style="shape=flexArrow;endArrow=classic;startArrow=classic;html=1;rounded=0;fontSize=19;fontColor=#000000;curved=1;" edge="1" parent="1">
          <mxGeometry width="100" height="100" relative="1" as="geometry">
            <mxPoint x="279.66999999999996" y="310" as="sourcePoint" />
            <mxPoint x="280" y="250" as="targetPoint" />
          </mxGeometry>
        </mxCell>
        <mxCell id="FymUpO2ddn1shdIVuSi2-68" value="" style="rounded=0;whiteSpace=wrap;html=1;fontSize=19;fontColor=#000000;fillColor=none;dashed=1;" vertex="1" parent="1">
          <mxGeometry x="510" y="130" width="750" height="100" as="geometry" />
        </mxCell>
        <mxCell id="FymUpO2ddn1shdIVuSi2-70" value="" style="shape=flexArrow;endArrow=classic;startArrow=classic;html=1;rounded=0;fontSize=19;fontColor=#000000;curved=1;" edge="1" parent="1">
          <mxGeometry width="100" height="100" relative="1" as="geometry">
            <mxPoint x="884.41" y="310" as="sourcePoint" />
            <mxPoint x="884.7399999999999" y="250" as="targetPoint" />
          </mxGeometry>
        </mxCell>
        <mxCell id="FymUpO2ddn1shdIVuSi2-71" value="帮您改签到$(date)，$(from)到$(to)的航班$(flightNo)" style="text;html=1;strokeColor=none;fillColor=none;align=center;verticalAlign=middle;whiteSpace=wrap;rounded=0;dashed=1;fontSize=19;fontColor=#000000;" vertex="1" parent="1">
          <mxGeometry x="1370" y="430" width="460" height="30" as="geometry" />
        </mxCell>
        <mxCell id="FymUpO2ddn1shdIVuSi2-73" value="..." style="text;html=1;strokeColor=none;fillColor=none;align=center;verticalAlign=middle;whiteSpace=wrap;rounded=0;dashed=1;fontSize=19;fontColor=#000000;" vertex="1" parent="1">
          <mxGeometry x="1370" y="490" width="460" height="30" as="geometry" />
        </mxCell>
        <mxCell id="FymUpO2ddn1shdIVuSi2-74" value="" style="rounded=0;whiteSpace=wrap;html=1;fontSize=19;fillColor=none;" vertex="1" parent="1">
          <mxGeometry x="1360" y="390" width="480" height="160" as="geometry" />
        </mxCell>
        <mxCell id="FymUpO2ddn1shdIVuSi2-75" value="自然语言生成模版库" style="text;html=1;strokeColor=none;fillColor=none;align=center;verticalAlign=middle;whiteSpace=wrap;rounded=0;dashed=1;fontSize=19;" vertex="1" parent="1">
          <mxGeometry x="1360" y="320" width="200" height="30" as="geometry" />
        </mxCell>
        <mxCell id="FymUpO2ddn1shdIVuSi2-76" value="" style="shape=flexArrow;endArrow=classic;startArrow=classic;html=1;rounded=0;fontSize=19;fontColor=#000000;curved=1;" edge="1" parent="1">
          <mxGeometry width="100" height="100" relative="1" as="geometry">
            <mxPoint x="1460" y="310" as="sourcePoint" />
            <mxPoint x="1460.33" y="250" as="targetPoint" />
          </mxGeometry>
        </mxCell>
      </root>
    </mxGraphModel>
  </diagram>
</mxfile>
